<svg xmlns="http://www.w3.org/2000/svg" width="36" height="35">
    <g fill="#ffffff" fill-rule="nonzero">
        <path d="m23.092 1.568 1.792 3.785a2.975 2.975 0 0 0 2.318 1.684l4.144.523-.77 4.118a2.976 2.976 0 0 0 .883 2.72l3.045 2.862-3.045 2.879a2.976 2.976 0 0 0-.884 2.72l.782 4.104-4.156.537a2.975 2.975 0 0 0-2.317 1.684l-1.775 3.78-3.676-2.01a2.996 2.996 0 0 0-2.866 0l-3.659 2.015-1.792-3.785A2.975 2.975 0 0 0 8.798 27.5l-4.144-.522.77-4.119a2.976 2.976 0 0 0-.883-2.72l-3.045-2.861 3.045-2.88a2.976 2.976 0 0 0 .884-2.72l-.782-4.104 4.156-.537a2.975 2.975 0 0 0 2.317-1.684l1.787-3.773 3.664 2.003a2.996 2.996 0 0 0 2.866 0l3.659-2.015M12.898.075c-.555 0-1.09.311-1.345.85L9.76 4.712a1.487 1.487 0 0 1-1.154.839l-4.155.537a1.487 1.487 0 0 0-1.272 1.748l.771 4.12a1.487 1.487 0 0 1-.44 1.353l-3.045 2.88a1.487 1.487 0 0 0 0 2.161l3.045 2.88c.367.347.533.857.44 1.354l-.77 4.119c-.158.84.423 1.639 1.27 1.748l4.156.538c.502.065.937.38 1.154.838l1.792 3.785a1.487 1.487 0 0 0 2.058.669l3.677-2.01a1.487 1.487 0 0 1 1.426 0l3.677 2.01a1.487 1.487 0 0 0 2.058-.669l1.792-3.785a1.488 1.488 0 0 1 1.154-.838l4.155-.537a1.487 1.487 0 0 0 1.272-1.75l-.771-4.118a1.487 1.487 0 0 1 .44-1.354l3.045-2.88c.62-.587.62-1.574 0-2.161l-3.045-2.88a1.487 1.487 0 0 1-.44-1.354l.77-4.118a1.487 1.487 0 0 0-1.27-1.75l-4.156-.536a1.487 1.487 0 0 1-1.154-.839L24.448.926A1.487 1.487 0 0 0 22.39.257l-3.677 2.01a1.486 1.486 0 0 1-1.426 0L13.61.257a1.48 1.48 0 0 0-.712-.182Z"/><path d="M12.97 14.047h-.817v5.058L8.77 14.047h-.875v6.442h.817v-5.062l3.384 5.062h.875zM19.079 14.047H14.42v6.442h4.807v-.76h-3.955v-2.193h3.564v-.756h-3.564v-1.973h3.806zM28.105 14.047h-.857l-1.01 4.14a31.55 31.55 0 0 0-.321 1.402 17.277 17.277 0 0 0-.501-2.28l-.923-3.262h-1.028l-1.226 4.351c-.03.105-.126.502-.29 1.191a21.967 21.967 0 0 0-.273-1.318l-.98-4.224h-.874l1.709 6.443h.87l1.367-4.909c.058-.208.121-.46.189-.756.02.094.088.346.202.756l1.358 4.909h.822l1.766-6.443Z"/>
    </g>
</svg>