<svg xmlns="http://www.w3.org/2000/svg" width="43" height="49"><path fill="gold" fill-rule="nonzero" d="m28.03 19.385-3.361-.497-1.496-3.05a1.436 1.436 0 0 0-.641-.635c-.678-.334-1.55-.034-1.884.643l-1.493 3.042-3.375.5c-.296.05-.575.194-.79.415a1.41 1.41 0 0 0 .039 1.986l2.428 2.368-.57 3.331c-.05.305 0 .622.144.894.352.662 1.232.939 1.902.587l2.986-1.577 2.99 1.58a1.423 1.423 0 0 0 .887.14 1.403 1.403 0 0 0 1.155-1.624l-.57-3.327 2.424-2.366a1.41 1.41 0 0 0-.775-2.41Zm-2.852 3.694a1.42 1.42 0 0 0-.41 1.227l.521 3.04-2.71-1.431a1.428 1.428 0 0 0-1.316-.002l-2.714 1.433.524-3.063a1.417 1.417 0 0 0-.41-1.204l-2.214-2.16 3.047-.451a1.409 1.409 0 0 0 1.06-.773l1.356-2.763 1.357 2.764c.204.416.6.705 1.058.772l3.061.453-2.21 2.158Zm17.775-2.202v-5.113c0-.704 0-2.354-1.614-2.354h-6.455v-1.613c0-.974-.645-2.421-2.42-2.421h-.847C31.218 4.338 27.13.5 21.974.5c-5.156 0-9.245 3.838-9.644 8.876h-.846c-.867 0-1.4.358-1.697.658-.694.706-.697 1.69-.695 1.787v1.59H2.608C.994 13.41.994 15.06.994 15.763l.003 5.056a8.475 8.475 0 0 0 2.275 6.44c1.686 1.81 4.1 2.85 6.62 2.85h.595a13.21 13.21 0 0 0 8.326 6.782v3.146h-2.488c-.724 0-2.421 0-2.421 2.337v.89h-.114c-2.007 0-2.307 1.517-2.307 2.421 0 1.607.815 2.421 2.42 2.421h16.139c1.606 0 2.42-.814 2.42-2.42 0-.905-.299-2.422-2.306-2.422h-.113v-.89c0-2.337-1.697-2.337-2.421-2.337h-2.489v-3.146a13.21 13.21 0 0 0 8.326-6.781h.596c2.52-.002 4.934-1.041 6.62-2.852 1.637-1.757 2.445-4.044 2.278-6.382Zm-8.069-1.818h2.42v1.613c0 1.615-.964 2.808-2.42 3.132V19.06ZM21.974 2.114c4.326 0 7.65 3.07 8.03 7.262H13.944c.38-4.193 3.704-7.262 8.03-7.262Zm5.648 39.538c.807 0 .807 0 .807.723v1.698c0 .445.36.806.807.806h.92c.462 0 .694 0 .694.807 0 .604 0 .807-.807.807H13.905c-.807 0-.807-.203-.807-.807 0-.807.231-.807.693-.807h.92a.807.807 0 0 0 .807-.806v-1.698c0-.723 0-.723.807-.723h11.297Zm11.873-15.493c-1.383 1.484-3.366 2.336-5.44 2.337h-1.103a.805.805 0 0 0-.735.473 11.578 11.578 0 0 1-8.06 6.499.807.807 0 0 0-.637.789v3.781h-3.092v-3.781a.807.807 0 0 0-.636-.79 11.577 11.577 0 0 1-8.06-6.498.806.806 0 0 0-.735-.473H9.895c-2.075-.001-4.059-.854-5.44-2.337-1.329-1.425-1.984-3.281-1.845-5.282v-5.113c0-.206 0-.564.042-.74h6.413v2.42H5.837a.807.807 0 0 0-.807.808v2.42c0 2.526 1.656 4.424 4.035 4.777v.872a.807.807 0 1 0 1.614 0V14.358c.009-.048.028-.09.028-.14v-2.41c-.002-.066.035-.44.233-.642.043-.044.173-.176.546-.176h20.979c.65 0 .797.443.807.807V26.32a.807.807 0 1 0 1.614 0v-.872c2.378-.353 4.034-2.25 4.034-4.777v-2.42a.807.807 0 0 0-.807-.807h-3.227v-2.42H41.3c.04.178.04.533.04.738l.003 5.17a6.896 6.896 0 0 1-1.848 5.226Zm-30.432-7.1v4.745c-1.455-.324-2.42-1.517-2.42-3.132V19.06h2.42Z"/></svg>